<?xml version="1.0" encoding="UTF-8"?>
<svg version="1.1" viewBox="0 0 1600 1592" width="1280" height="1280" xmlns="http://www.w3.org/2000/svg">
<path transform="translate(0)" d="m0 0h1600v1592h-1600v-1592z"/>
<path transform="translate(207 227)" d="m0 0c1.23-0.00446 2.47-0.00892 3.74-0.0135 1.38 8.93e-5 2.76 2.79e-4 4.15 5.59e-4 1.46-0.0033 2.92-0.00702 4.38-0.0111 4.02-0.01 8.04-0.0137 12.1-0.0164 4.33-0.0039 8.66-0.0135 13-0.0222 10.5-0.0198 20.9-0.0298 31.4-0.0387 4.93-0.00438 9.85-0.00975 14.8-0.015 16.4-0.017 32.7-0.0315 49.1-0.0387 4.25-0.00191 8.5-0.00383 12.7-0.00579 1.58-7.26e-4 1.58-7.26e-4 3.2-0.00147 17.1-0.0083 34.2-0.0336 51.4-0.0661 17.6-0.033 35.1-0.0511 52.7-0.0543 9.87-0.00217 19.7-0.011 29.6-0.0365 8.4-0.0217 16.8-0.0298 25.2-0.02 4.29 0.00456 8.58 0.00257 12.9-0.0168 3.92-0.0175 7.85-0.0167 11.8-0.0011 1.42 0.00239 2.84-0.00202 4.26-0.0138 1.93-0.015 3.86-0.0031 5.79 0.0102 1.61-0.00147 1.61-0.00147 3.25-0.00296 4.44 0.765 6.86 3.2 9.59 6.65 0.51 0.773 1.02 1.55 1.55 2.34 4.05 5.99 8.39 11.7 12.8 17.5 3.26 4.32 6.49 8.66 9.68 13 4.52 6.19 9.1 12.3 13.8 18.4 16.5 21.5 16.5 21.5 22 29.5 4.23 6.14 8.83 12 13.4 17.9 4.32 5.61 8.57 11.3 12.7 17 3.73 5.16 7.64 10.2 11.6 15.2 4.17 5.33 8.23 10.7 12 16.3 3.73 5.27 7.73 10.4 11.7 15.5 4.12 5.36 8.18 10.8 12.2 16.2 1 1.33 2 2.67 3 4 0.473 0.632 0.946 1.26 1.43 1.91 1.16 1.54 2.32 3.07 3.48 4.61 4.64 6.14 9.17 12.3 13.7 18.6 3.94 5.48 7.95 10.8 12.2 16.1 3.77 4.78 7.33 9.72 10.9 14.6 3.5 4.77 7.03 9.5 10.7 14.2 3.64 4.69 7.16 9.45 10.6 14.3 3.6 4.96 7.31 9.85 11 14.7 1.44 1.92 2.88 3.83 4.31 5.75 0.742 0.99 1.48 1.98 2.25 3 5.82 7.76 11.6 15.5 17.4 23.3 0.74 0.987 0.74 0.987 1.5 1.99 0.996 1.33 1.99 2.66 2.99 3.99 2.52 3.36 5.04 6.72 7.58 10.1 4.81 6.38 9.57 12.8 14.2 19.3 2.75 3.89 5.55 7.69 8.56 11.4 3.76 4.61 7.22 9.41 10.7 14.2 4.14 5.78 8.34 11.5 12.9 16.9 1.57 1.97 2.95 4 4.32 6.12 1.99 3.06 1.99 3.06 4.72 3.8 2.59 0.37 2.59 0.37 4.55-0.941 4.54-4.23 8.44-8.72 12.2-13.6 2.09-2.64 4.4-4.94 6.81-7.29 1.48-1.7 2.93-3.42 4.38-5.16 2.11-2.39 4.37-4.59 6.62-6.84 2.04-2.15 4.05-4.32 6.06-6.5 0.516-0.556 1.03-1.11 1.56-1.68 2.28-2.47 4.46-4.93 6.55-7.56 1.57-1.94 2.98-3.33 4.95-4.82 2.88-2.1 2.88-2.1 3.81-4.38 1.28-2.49 2.78-3.74 4.94-5.5 3.13-2.63 5.59-5.35 8.12-8.56h2c0.233-0.552 0.467-1.1 0.707-1.67 1.63-2.94 3.69-5.12 5.98-7.58 3.09-3.34 6.15-6.68 9.12-10.1 2.61-3.01 5.37-5.81 8.19-8.62 0.825-0.99 1.65-1.98 2.5-3 2.37-2.85 4.77-5.49 7.5-8h2c0.247-0.557 0.495-1.11 0.75-1.69 1.48-2.74 3.18-4.99 5.25-7.31h2c0.377-0.853 0.377-0.853 0.762-1.72 1.41-2.59 3.07-4.53 5.05-6.71 0.717-0.791 1.43-1.58 2.17-2.4 2.28-2.45 4.65-4.8 7.02-7.16 1.79-2.02 3.55-4.06 5.31-6.09 2.13-2.41 4.42-4.64 6.69-6.91 1.74-1.96 3.45-3.94 5.16-5.94 2.19-2.45 4.5-4.75 6.84-7.06 2.04-2.02 4.08-4.04 6.12-6.06 0.525-0.516 1.05-1.03 1.59-1.56 2.17-2.16 4.21-4.27 6.03-6.74 0.415-0.538 0.83-1.08 1.26-1.63h2c0.101-0.605 0.201-1.21 0.305-1.83 0.829-2.58 1.67-3.25 3.82-4.86 3.74-3.01 6.39-6.46 9.26-10.3 1.94-2.43 4.16-4.13 6.62-6.03 3.06-3.26 6.01-6.59 8.59-10.2 0.467-0.577 0.933-1.15 1.41-1.75h2c0.66-1.32 1.32-2.64 2-4h2c0.101-0.603 0.201-1.21 0.305-1.83 0.828-2.59 1.69-3.29 3.82-4.92 4.13-3.36 7.45-7.19 10.9-11.2 3.87-4.49 7.81-8.81 12-13 1.83-2.13 3.65-4.27 5.45-6.43 0.512-0.519 1.02-1.04 1.55-1.57h2c0.259-0.588 0.518-1.18 0.785-1.78 1.3-2.37 2.69-3.86 4.65-5.72 2-1.93 3.71-3.7 5.38-5.94 0.588-0.773 0.588-0.773 1.19-1.56h2c0.259-0.588 0.518-1.18 0.785-1.78 1.3-2.37 2.69-3.86 4.65-5.72 2-1.93 3.71-3.7 5.38-5.94 0.588-0.773 0.588-0.773 1.19-1.56h2c0.227-0.722 0.454-1.44 0.688-2.19 1.56-3.34 3.67-5.34 6.31-7.81 4.59-4.49 9.07-8.91 13-14 1.33-1.33 2.67-2.67 4-4 0.986-1.14 1.97-2.29 2.94-3.44 2.55-3.01 5.27-5.77 8.06-8.56 1.17-1.33 2.34-2.66 3.5-4 3.37-3.88 6.93-7.49 10.6-11.1 5.12-4.99 5.12-4.99 9.49-10.6 2.12-3.17 4.61-5.32 7.55-7.71 4.35-3.81 7.9-8.47 11.6-12.9 2.25-2.69 2.25-2.69 3.72-4.15 1.52-1.53 2.86-3.12 4.21-4.79 2.25-2.65 4.6-4.94 7.25-7.19 3.46-2.94 6.41-6.09 9.32-9.57 0.574-0.657 1.15-1.31 1.74-1.99 0.658-0.856 1.32-1.71 1.99-2.59 4.26-3.41 7.54-3.04 12.8-2.88 0.986 0.00902 1.97 0.018 2.99 0.0273 3.25 0.0357 6.5 0.107 9.76 0.179 2.26 0.0318 4.51 0.0613 6.77 0.0887 5.94 0.078 11.9 0.186 17.8 0.301 6.06 0.112 12.1 0.195 18.2 0.28 11.9 0.172 23.8 0.376 35.7 0.6 0.33 1.32 0.66 2.64 1 4h-2c-0.227 0.722-0.454 1.44-0.688 2.19-1.59 3.4-3.61 5.21-6.31 7.81-8.3 8.19-8.3 8.19-16.1 16.8-2.4 2.77-4.89 5.46-7.38 8.16-7.52 8.16-7.52 8.16-14.6 16.7-2.13 2.63-4.45 4.95-6.88 7.31-1.18 1.18-1.18 1.18-2.38 2.38-1.46 1.46-2.92 2.91-4.39 4.36-2.52 2.49-4.93 4.86-7.05 7.71-0.588 0.773-0.588 0.773-1.19 1.56h-2c-0.381 0.874-0.381 0.874-0.77 1.77-1.36 2.48-2.87 4.04-4.92 5.98-4.91 4.79-9.44 9.82-13.6 15.2-0.557 0.66-1.11 1.32-1.69 2h-2c-0.268 0.598-0.536 1.2-0.812 1.81-1.21 2.23-2.37 3.44-4.19 5.19-1.23 1.49-2.46 2.98-3.69 4.47-1.98 2.31-4.13 4.41-6.31 6.53-1.38 1.35-2.75 2.71-4.12 4.06-0.663 0.651-1.33 1.3-2.01 1.97-1.92 1.93-1.92 1.93-3.48 4.21-0.684 0.868-0.684 0.868-1.38 1.75h-2c-0.371 0.835-0.371 0.835-0.75 1.69-1.48 2.74-3.18 4.99-5.25 7.31h-2c-0.66 1.32-1.32 2.64-2 4h-2c-0.264 0.593-0.529 1.19-0.801 1.8-1.24 2.28-2.5 3.68-4.39 5.45-4.75 4.61-9.09 9.51-13.1 14.8-0.557 0.66-1.11 1.32-1.69 2h-2c-0.262 0.579-0.523 1.16-0.793 1.75-1.28 2.38-2.72 4.17-4.52 6.18-0.936 1.05-0.936 1.05-1.89 2.12-2.2 2.38-4.5 4.65-6.8 6.95-0.986 1.16-1.96 2.33-2.94 3.5-1.96 2.33-3.94 4.34-6.31 6.25-2.89 2.14-2.89 2.14-4.75 5.25h-2c-0.247 0.557-0.495 1.11-0.75 1.69-1.48 2.74-3.18 4.99-5.25 7.31h-2c-0.66 1.32-1.32 2.64-2 4h-2c-0.206 0.722-0.412 1.44-0.625 2.19-1.46 2.99-3.07 4.29-5.66 6.3-2.77 2.45-4.83 5.42-7.05 8.36-2.55 3.3-5.02 6.4-8.85 8.15-2.58 1.43-2.74 3.29-3.81 6-2.12 2.31-2.12 2.31-5 5-4.77 4.65-9.3 9.39-13.6 14.5-0.715 0.727-0.715 0.727-1.45 1.47h-2c-0.257 0.587-0.513 1.17-0.777 1.78-1.33 2.43-2.77 3.9-4.79 5.79-4.16 4.03-7.76 8.39-11.4 12.9-1.92 2.33-3.83 4.49-6.08 6.52h-2c-0.268 0.577-0.536 1.15-0.812 1.75-1.22 2.31-2.49 4.27-4.19 6.25h-2c-0.227 0.557-0.454 1.11-0.688 1.69-1.69 2.97-3.78 5.03-6.31 7.31h-2c-0.33 1.32-0.66 2.64-1 4h-2c-0.66 1.32-1.32 2.64-2 4h-2c-0.233 0.562-0.467 1.12-0.707 1.7-1.61 2.86-3.61 4.77-5.98 7.05-5.05 4.95-9.68 10.1-14.2 15.5-0.626 0.735-1.25 1.47-1.9 2.23-0.563 0.67-1.13 1.34-1.71 2.03-1.48 1.47-1.48 1.47-3.48 1.47-0.247 0.557-0.495 1.11-0.75 1.69-1.48 2.74-3.18 4.99-5.25 7.31h-2c-0.254 0.583-0.508 1.17-0.77 1.77-1.36 2.48-2.87 4.04-4.92 5.98-4.96 4.84-9.49 9.97-13.8 15.4-1.92 2.21-3.58 3.82-5.81 5.62-3.86 3.19-6.76 6.96-9.83 10.9-2.14 2.7-4.28 5.07-6.86 7.35h-2c-0.0619 0.557-0.124 1.11-0.188 1.69-1.16 3.31-3.21 5.02-5.81 7.31-0.99 0.33-1.98 0.66-3 1-0.707 1.31-1.37 2.65-2 4-1.12 1.45-2.29 2.87-3.5 4.25-0.608 0.706-1.22 1.41-1.84 2.14-1.66 1.61-1.66 1.61-3.66 1.61-0.66 1.32-1.32 2.64-2 4h-2c-0.247 0.557-0.495 1.11-0.75 1.69-2.61 4.83-6.4 8.46-10.2 12.3-0.66 0.825-1.32 1.65-2 2.5-2.63 3.29-5.62 6.15-8.63 9.09-8.28 7.89-8.28 7.89-14.4 17.4 4.4 7.05 9.44 13.6 14.6 20.1 0.553 0.709 1.11 1.42 1.68 2.15 0.501 0.634 1 1.27 1.52 1.92 1.21 1.87 1.21 1.87 1.69 4.05 0.171 0.602 0.341 1.2 0.517 1.83 0.99 0.33 1.98 0.66 3 1 0.333 1.33 0.667 2.67 1 4 0.99 0.33 1.98 0.66 3 1 1.43 1.86 2.77 3.79 4.06 5.75 3.17 4.73 6.44 9.32 9.94 13.8 0.421 0.542 0.843 1.08 1.28 1.64 0.84 1.08 1.68 2.16 2.52 3.24 4.64 6 9.14 12.1 13.6 18.2 0.609 0.829 1.22 1.66 1.85 2.51 1.2 1.63 2.39 3.26 3.59 4.89 2.84 3.87 5.71 7.7 8.67 11.5 3.38 4.32 6.59 8.75 9.78 13.2 5.41 7.54 11 14.9 16.7 22.2 6.18 7.93 12.2 16 18 24.1 6.82 9.49 13.7 18.9 21.1 28 3.52 4.34 6.74 8.86 9.96 13.4 2.97 4.19 6.08 8.25 9.29 12.3 4.7 5.88 9.04 12 13.3 18.1 3.31 4.73 6.77 9.27 10.4 13.7 2.73 3.4 5.25 6.93 7.79 10.5 3.62 5 7.35 9.92 11.1 14.8 1.56 2.08 3.13 4.17 4.69 6.25 1.12 1.49 1.12 1.49 2.26 3.02 29.1 38.7 29.1 38.7 30.5 40.7 1.14 1.52 2.29 3.05 3.44 4.57 4.73 6.29 9.41 12.6 14.1 18.9 4.73 6.44 9.54 12.8 14.4 19.1 3.9 5.07 7.66 10.3 11.4 15.4 3.47 4.72 6.97 9.4 10.6 14 3.57 4.61 7.03 9.28 10.4 14 4.14 5.68 8.39 11.3 12.6 16.9 3.03 4.02 6.05 8.05 9.07 12.1 2.48 3.31 4.97 6.62 7.46 9.93 5.24 6.95 10.4 13.9 15.5 21 5.32 7.41 10.8 14.7 16.4 21.9 4.68 6.08 9.26 12.2 13.9 18.4 1.94 2.6 3.89 5.2 5.84 7.79 0.71 0.947 1.42 1.89 2.15 2.87 1.76 2.35 3.52 4.69 5.29 7.04 5.07 6.75 10.1 13.5 15 20.4 1.53 2.07 3.07 4.1 4.66 6.12 0.454 0.58 0.907 1.16 1.37 1.76 0.882 1.12 1.77 2.24 2.66 3.35 1.87 2.39 3.32 4.48 4.43 7.32 0.296 0.719 0.593 1.44 0.898 2.18 0.99 0.33 1.98 0.66 3 1 1.68 2.33 1.68 2.33 3.44 5.25 1.81 2.99 3.58 5.77 5.79 8.48 1.78 2.27 1.78 2.27 1.78 4.27 0.99 0.33 1.98 0.66 3 1 1.62 1.94 1.62 1.94 3.44 4.56 0.7 0.991 1.4 1.98 2.12 3 0.58 0.822 0.58 0.822 1.17 1.66 2.36 3.3 4.82 6.53 7.27 9.77 4.01 5.33 7.97 10.7 11.9 16.1 2.63 3.6 5.31 7.15 7.99 10.7 5.5 7.31 10.8 14.7 16.1 22.2 0.46 0.622 0.921 1.24 1.4 1.89 3.6 4.9 3.6 4.9 3.6 7.11-45.6 0.114-91.3 0.203-137 0.255-5.39 0.00625-10.8 0.0127-16.2 0.0193-1.07 0.00131-2.14 0.00262-3.25 0.00397-17.4 0.0218-34.8 0.0612-52.1 0.107-17.8 0.0467-35.6 0.0745-53.5 0.0847-11 0.00687-22 0.0286-33 0.0691-7.54 0.0264-15.1 0.0344-22.6 0.0279-4.35-0.00321-8.71 0.0018-13.1 0.0285-3.98 0.0243-7.97 0.0256-11.9 0.00847-1.44-0.00212-2.89 0.00427-4.33 0.0199-1.96 0.02-3.92 0.00629-5.87-0.00918-1.09 0.0019-2.18 0.0038-3.3 0.00575-3.89-0.827-5.37-2.65-7.92-5.62-0.623-0.721-1.25-1.44-1.89-2.18-4.15-5.19-8.08-10.5-11.9-15.9-5.67-8-11.6-15.8-17.5-23.6-2.2-2.91-4.38-5.83-6.57-8.75-0.688-0.918-1.38-1.84-2.09-2.78-6.54-8.72-6.54-8.72-8.8-11.7-1.47-1.96-2.95-3.92-4.42-5.88-4.13-5.49-8.21-11-12.3-16.5-3.9-5.34-7.88-10.6-11.9-15.9-3.52-4.55-6.99-9.15-10.4-13.8-1.43-1.91-2.86-3.82-4.3-5.73-4.57-6.05-9.03-12.2-13.5-18.3-4-5.57-8.07-11-12.4-16.3-3.13-3.95-6.07-8.03-9.03-12.1-2.95-4.05-5.97-8.03-9.06-12-7.09-9.13-14-18.4-20.6-27.9-1.71-2.42-3.44-4.79-5.29-7.1-2.31-2.9-4.44-5.91-6.57-8.95-3.91-5.52-7.98-10.9-12.2-16.2-7.77-9.81-15.2-19.9-22.5-30-2-2.75-4.04-5.48-6.09-8.2-1.29-1.72-2.58-3.44-3.87-5.16-0.79-1.06-1.58-2.11-2.39-3.2-0.735-0.984-1.47-1.97-2.23-2.98-1.37-1.81-2.77-3.61-4.2-5.38-1.94-2.43-3.77-4.92-5.58-7.45-3.01-4.16-6.1-8.26-9.25-12.3-4-5.15-7.81-10.4-11.6-15.7-2.83-3.99-5.74-7.88-8.78-11.7-2.1-2.68-4.14-5.41-6.18-8.13-1.5-2.01-3.01-4.01-4.52-6.02-5.17-6.87-10.3-13.8-15.3-20.7-2.53-3.49-5.13-6.93-7.72-10.4-1.38-1.83-2.75-3.67-4.12-5.5-0.77-1.03-1.54-2.05-2.33-3.11-9.85-13.1-19.7-26.3-29.5-39.4-3.72 0.213-4.85 0.843-7.44 3.62-0.858 1.12-1.71 2.25-2.56 3.38-9.54 11.5-9.54 11.5-14 13-0.686 1.32-1.35 2.66-2 4-3.09 3.93-6.31 7.61-10 11h-2c-0.272 0.589-0.544 1.18-0.824 1.79-2.88 5.42-7.68 10.1-12.2 14.2h-2l-0.188 1.69c-1.38 3.92-4.29 6.57-8 8.38-1.95 0.772-1.95 0.772-2.6 2.63-1.65 3.14-3.99 5.55-6.4 8.12-0.492 0.53-0.984 1.06-1.49 1.61-3.24 3.48-6.56 6.86-9.96 10.2-1.52 1.5-1.52 1.5-3.18 3.84-0.392 0.516-0.784 1.03-1.19 1.56h-2c-0.371 0.835-0.371 0.835-0.75 1.69-1.48 2.74-3.18 4.99-5.25 7.31h-2c-0.66 1.32-1.32 2.64-2 4h-2c-0.21 0.527-0.42 1.05-0.637 1.6-1.93 3.39-4.5 6.01-7.18 8.84-0.521 0.56-1.04 1.12-1.58 1.7-2.41 2.58-4.86 5.12-7.36 7.61-2.28 2.29-4.24 4.72-6.25 7.25l-3 3c-1.13 1.28-2.26 2.58-3.38 3.88-2.77 3.18-5.51 6.28-8.62 9.12h-2c-0.227 0.722-0.454 1.44-0.688 2.19-1.58 3.38-3.52 5.37-6.31 7.81h-2c-0.272 0.589-0.544 1.18-0.824 1.79-2.91 5.49-7.77 9.92-12.2 14.2-6.33 6.2-12.3 12.6-17.8 19.5-0.722 0.825-1.44 1.65-2.19 2.5h-2c-0.66 1.32-1.32 2.64-2 4h-2c-0.227 0.722-0.454 1.44-0.688 2.19-1.61 3.44-3.53 5.21-6.31 7.81-4.77 4.65-9.3 9.39-13.6 14.5-0.477 0.485-0.954 0.969-1.45 1.47h-2c-0.34 0.804-0.34 0.804-0.688 1.62-1.77 3.2-3.85 5.67-6.31 8.38h-2c-0.402 0.959-0.402 0.959-0.812 1.94-1.19 2.06-1.19 2.06-4.19 3.06-0.103 0.577-0.206 1.16-0.312 1.75-0.902 2.95-2.7 3.99-5.08 5.83-1.71 1.51-2.84 3.02-4.11 4.92-2.4 3.57-5.15 5.82-8.5 8.5-0.66 0.99-1.32 1.98-2 3h-2c-0.248 0.562-0.495 1.12-0.75 1.7-1.46 2.69-3.22 4.76-5.25 7.05-1.05 1.2-1.05 1.2-2.12 2.42-1.88 1.83-1.88 1.83-3.88 1.83-0.371 0.835-0.371 0.835-0.75 1.69-2.61 4.82-6.36 8.51-10.2 12.3-1.38 1.35-2.75 2.71-4.12 4.06-0.663 0.651-1.33 1.3-2.01 1.97-1.92 1.93-1.92 1.93-3.48 4.21-0.456 0.579-0.913 1.16-1.38 1.75h-2c-0.66 1.32-1.32 2.64-2 4h-2c-0.99 2.47-0.99 2.47-2 5h-2c-0.227 0.556-0.454 1.11-0.688 1.68-1.69 2.98-3.85 5-6.31 7.38-2.68 2.59-4.93 4.83-7 7.94h-2c-0.262 0.579-0.523 1.16-0.793 1.75-3.14 5.84-8.5 10.7-13.2 15.2-5.51 5.38-10.6 11-15.6 16.9-3 3.53-5.98 6.98-9.4 10.1h-2c-0.272 0.589-0.544 1.18-0.824 1.79-2.93 5.52-7.8 9.84-12.2 14.2-2.35 2.65-4.69 5.31-7.01 7.99-0.656 0.664-1.31 1.33-1.99 2.01h-2c-0.26 0.589-0.521 1.18-0.789 1.79-1.29 2.35-2.65 3.82-4.59 5.65-2.19 2.11-4.05 4.1-5.94 6.5-0.835 1.02-0.835 1.02-1.69 2.06h-2c-0.371 0.835-0.371 0.835-0.75 1.69-3.1 5.73-7.88 10.1-12.6 14.5-2.69 2.58-2.69 2.58-4.06 5.23-2.86 4.62-5.01 7.18-10.4 8.51-4.8 0.473-9.6 0.38-14.4 0.302-1.8 0.00634-3.6 0.0169-5.4 0.0316-4.74 0.0264-9.47-0.00753-14.2-0.0535-4.75-0.0345-9.49-0.00734-14.2 0.0122-17.4 0.0402-34.6-0.283-52-1.22-0.495-1.49-0.495-1.49-1-3 1.48-2.3 1.48-2.3 3.62-4.88 1.11-1.33 1.11-1.33 2.24-2.69 2.27-2.59 4.66-5.03 7.13-7.43 0.619-0.804 1.24-1.61 1.88-2.44 1.76-2.12 3.34-3.64 5.44-5.38 4.03-3.36 7.31-7.19 10.7-11.2 1.25-1.44 2.5-2.88 3.75-4.31 0.552-0.636 1.1-1.27 1.67-1.93 0.989-1.1 2.01-2.19 3.06-3.23 2.46-2.48 4.65-5.21 6.9-7.89 0.535-0.543 1.07-1.09 1.62-1.64h2c0.408-0.884 0.408-0.884 0.824-1.79 2.93-5.52 7.8-9.84 12.2-14.2 1.17-1.33 2.34-2.66 3.5-4 2.73-3.14 5.43-6.19 8.5-9h2c0.258-0.572 0.516-1.14 0.781-1.73 1.33-2.48 2.87-4.4 4.72-6.52 0.608-0.706 1.22-1.41 1.84-2.14 1.66-1.61 1.66-1.61 3.66-1.61 0.393-0.876 0.393-0.876 0.793-1.77 1.28-2.36 2.66-3.99 4.52-5.92 0.989-1.04 0.989-1.04 2-2.1 1.05-1.1 1.05-1.1 2.13-2.21 1.45-1.53 2.91-3.05 4.36-4.58 1.07-1.12 1.07-1.12 2.17-2.27 2.77-2.92 5.51-5.87 8.22-8.83 1.23-1.34 1.23-1.34 2.48-2.7 1.7-1.91 3.36-3.83 4.98-5.79 2.32-2.79 4.75-5.29 7.35-7.82 3.28-3.21 6.47-6.33 9.31-9.94 0.557-0.681 1.11-1.36 1.69-2.06h2c0.248-0.562 0.495-1.12 0.75-1.7 1.46-2.69 3.22-4.76 5.25-7.05 0.701-0.799 1.4-1.6 2.12-2.42 1.88-1.83 1.88-1.83 3.88-1.83 0.227-0.722 0.454-1.44 0.688-2.19 1.59-3.4 3.57-5.26 6.31-7.81 0.846-0.887 1.69-1.77 2.56-2.69 2.44-2.31 2.44-2.31 4.62-3.38 1.95-0.782 1.95-0.782 2.68-2.7 1.38-2.71 3.12-4.72 5.14-6.99 0.701-0.799 1.4-1.6 2.12-2.42 1.88-1.83 1.88-1.83 3.88-1.83 0.206-0.722 0.413-1.44 0.625-2.19 1.48-3.03 3.17-4.4 5.8-6.43 1.68-1.48 2.77-2.96 4.01-4.82 1.76-2.62 3.54-4.52 6-6.5 3.33-2.7 5.61-5.7 8.08-9.18 1.45-1.85 2.89-3.19 4.73-4.64 2.77-1.96 2.77-1.96 3.75-4.25 1.27-2.54 3.14-3.84 5.34-5.56 2.43-2.11 4.36-4.57 6.36-7.08 0.428-0.447 0.856-0.895 1.3-1.36h2c0.101-0.603 0.201-1.21 0.305-1.83 0.828-2.59 1.69-3.29 3.82-4.92 3.34-2.72 6.07-5.64 8.86-8.91 2.91-3.37 5.93-6.62 8.95-9.89 3.31-3.59 6.51-7.26 9.63-11 1.44-1.43 1.44-1.43 4.44-2.43 0.289-0.577 0.577-1.15 0.875-1.75 1.51-3.03 3.71-4.87 6.12-7.25 1.88-1.98 3.72-3.99 5.56-6 0.469-0.508 0.937-1.02 1.42-1.54 2.18-2.38 4.26-4.78 6.23-7.34 0.589-0.701 1.18-1.4 1.79-2.12h2c0.0993-0.602 0.199-1.2 0.301-1.82 0.837-2.6 1.74-3.34 3.89-4.99 3.31-2.66 5.92-5.54 8.55-8.87 0.416-0.436 0.833-0.871 1.26-1.32h2c0.165-0.681 0.33-1.36 0.5-2.06 1.88-3.69 4.39-5.56 7.54-8.18 2.53-2.28 4.15-4.89 5.96-7.76 1.64-1.7 3.31-3.35 5-5 2.71-2.68 5.42-5.37 8.12-8.06 0.715-0.707 1.43-1.41 2.17-2.14 0.69-0.686 1.38-1.37 2.09-2.08 0.623-0.618 1.25-1.24 1.89-1.87 1.8-1.83 1.8-1.83 3.33-4.08 0.462-0.583 0.923-1.17 1.4-1.77h2c0.0412-0.557 0.0825-1.11 0.125-1.69 1.11-2.93 2.97-4.14 5.39-6.03 2.05-1.78 3.13-3.94 4.48-6.29 1.62-1.71 3.29-3.37 5-5 0.846-0.887 1.69-1.77 2.56-2.69 2.44-2.31 2.44-2.31 4.62-3.38 2.4-1.24 2.7-2.51 3.81-4.94 2-2.75 2-2.75 4-5h2c0.247-0.562 0.495-1.12 0.75-1.7 1.46-2.69 3.22-4.76 5.25-7.05 1.05-1.2 1.05-1.2 2.12-2.42 1.88-1.83 1.88-1.83 3.88-1.83 0.273-0.593 0.547-1.19 0.828-1.8 1.85-3.47 4.51-6.09 7.17-8.95 0.547-0.602 1.09-1.2 1.66-1.82 1.4-1.52 2.87-2.98 4.34-4.43h2c0.206-0.722 0.412-1.44 0.625-2.19 1.77-3.61 4.28-5.3 7.38-7.81 0.33-0.66 0.66-1.32 1-2 1.26-2.53 3.12-3.8 5.3-5.53 2.53-2.19 4.59-4.73 6.76-7.28 2.85-3.23 5.93-6.21 9.02-9.21 2.08-2.03 2.08-2.03 3.92-4.98h2c0.0619-0.557 0.124-1.11 0.188-1.69 1.44-4.1 4.8-6.54 8.19-9.12 3.64-3.04 6.56-6.58 9.62-10.2 0.576-0.661 1.15-1.32 1.75-2 2.94-3.28 2.94-3.28 5.25-7h2c-3.13-6.37-7.01-11.6-11.6-17-2.47-3.03-4.75-6.16-6.99-9.36-4.37-6.22-8.94-12.3-13.6-18.3-4.71-6.15-9.38-12.3-13.9-18.6-4.11-5.66-8.34-11.2-12.5-16.8-2.04-2.72-4.08-5.44-6.12-8.16-0.715-0.954-1.43-1.91-2.17-2.89-6.64-8.86-6.64-8.86-8.91-11.9-1.43-1.91-2.87-3.82-4.3-5.73-5.32-7.06-10.6-14.2-15.8-21.3-3.45-4.7-6.99-9.34-10.6-13.9-1.85-2.38-3.62-4.8-5.37-7.25-2.89-4-5.85-7.92-8.88-11.8-4.7-6.04-9.16-12.2-13.6-18.5-3.58-4.99-7.27-9.82-11.2-14.5-1.49-1.95-1.49-1.95-2.45-3.95-1.3-2.48-3.05-4.04-5.04-5.99-1.08-1.45-2.12-2.94-3.12-4.44-2.82-4.1-5.76-8.07-8.81-12-3.71-4.78-7.32-9.63-10.9-14.5-4.18-5.74-8.47-11.4-12.7-17.1-3.45-4.59-6.89-9.18-10.3-13.8-4.76-6.36-9.53-12.7-14.4-19-3.6-4.66-7.1-9.38-10.5-14.2-1.74-2.38-3.5-4.75-5.27-7.1-0.806-1.07-0.806-1.07-1.63-2.16-1.06-1.4-2.12-2.81-3.19-4.21-2.59-3.43-4.96-6.85-7.12-10.6-0.979-1.02-1.98-2.02-3-3-2.7-3.3-5.26-6.67-7.75-10.1-0.691-0.954-1.38-1.91-2.09-2.89-1.44-1.99-2.88-3.98-4.31-5.97-0.691-0.954-1.38-1.91-2.09-2.89-0.624-0.864-1.25-1.73-1.89-2.62-1.25-1.69-2.54-3.35-3.85-5-2.04-2.56-3.97-5.17-5.88-7.82-2.86-3.95-5.74-7.88-8.68-11.8-1.02-1.35-2.03-2.71-3.04-4.08-0.525-0.709-1.05-1.42-1.59-2.15-0.468-0.636-0.936-1.27-1.42-1.93-1.34-1.77-1.34-1.77-2.88-3.18-1.91-2-3.1-4.21-4.51-6.58-1.54-2.06-3.1-4.1-4.69-6.12-3.92-5.04-7.71-10.1-11.4-15.3-1.75-2.39-3.54-4.72-5.36-7.05-3.17-4.04-6.18-8.17-9.19-12.3-4.22-5.78-8.54-11.5-12.8-17.2-2.49-3.31-4.98-6.63-7.47-9.95-1.45-1.93-2.89-3.86-4.34-5.78-1.01-1.35-2.03-2.71-3.04-4.06-2.4-3.2-4.8-6.4-7.22-9.58-3.69-4.86-7.26-9.68-10.3-15-1.02-1.67-1.02-1.67-2.49-3.02-1.52-1.54-2.72-3.08-3.96-4.85-0.428-0.608-0.856-1.22-1.3-1.84-0.885-1.27-1.77-2.54-2.66-3.81-0.428-0.608-0.856-1.22-1.3-1.84-0.384-0.552-0.768-1.1-1.16-1.67-1.29-1.68-2.71-3.1-4.21-4.58-1.42-1.81-2.81-3.65-4.19-5.5-0.396-0.531-0.792-1.06-1.2-1.61-2.54-3.42-5.05-6.87-7.55-10.3-2.95-4.08-5.98-8.08-9.06-12.1-6.19-8.01-12.2-16.1-17.7-24.6-1.31-1.85-2.71-3.28-4.32-4.88-3.62-4.32-6.85-8.92-10.1-13.5-4-5.57-8.04-11.1-12.3-16.5-6.27-8.11-6.27-8.11-8.81-11.6-0.571-0.764-1.14-1.53-1.73-2.32-1.08-2.12-1.08-2.12-0.883-4.34 1.66-3.69 4.98-2.91 8.56-2.92z" fill="#FCFDFF"/>
<path transform="translate(362 305)" d="m0 0c1.31-0.00282 2.61-0.00564 3.96-0.00854 1.46 0.00194 2.91 0.00399 4.37 0.00613 1.53-0.00135 3.05-0.00313 4.58-0.00531 4.16-0.00457 8.31-0.00279 12.5 3.79e-4 4.35 0.00253 8.7 1.85e-4 13-0.00139 7.31-0.00182 14.6 5.83e-4 21.9 0.00534 8.44 0.00543 16.9 0.00369 25.3-0.00183 7.25-0.00454 14.5-0.00518 21.7-0.00256 4.33 0.00156 8.66 0.00177 13-0.00154 4.07-0.00289 8.15-8.76e-4 12.2 0.00489 1.49 0.00132 2.99 9.46e-4 4.48-0.00126 2.04-0.00274 4.09 0.00131 6.13 0.00568 1.14 3.77e-4 2.28 7.54e-4 3.46 0.00114 3.18 0.126 6.08 0.365 9.17 1.13 2.04 2.26 3.64 4.31 5.31 6.81 0.96 1.38 1.92 2.75 2.88 4.13 0.472 0.687 0.944 1.37 1.43 2.08 1.95 2.8 4 5.51 6.06 8.23 2.74 3.64 5.45 7.31 8.12 11 4.82 6.66 9.77 13.2 14.7 19.8 1.52 2.02 3.03 4.04 4.54 6.06 2.52 3.37 5.09 6.7 7.68 10 3.7 4.8 7.33 9.65 10.9 14.6 0.438 0.6 0.876 1.2 1.33 1.82 3.05 4.26 3.05 4.26 3.05 6.49 0.99 0.33 1.98 0.66 3 1 1.39 1.96 2.71 3.97 4 6 1.59 2.1 3.19 4.18 4.81 6.25 12.2 15.7 12.2 15.7 12.2 18.8 0.99 0.33 1.98 0.66 3 1 1.39 1.96 2.72 3.97 4 6 1.34 1.82 2.69 3.64 4.06 5.44 3.56 4.72 7.08 9.47 10.6 14.2 3.47 4.75 7 9.45 10.6 14.1 5.74 7.36 11.2 14.9 16.7 22.5 3.62 4.96 7.33 9.87 11 14.8 1.44 1.92 2.88 3.83 4.31 5.75 1.11 1.49 1.11 1.49 2.25 3 1.75 2.33 3.5 4.67 5.25 7 0.489 0.652 0.979 1.3 1.48 1.98 1.02 1.36 2.04 2.72 3.06 4.08 2.53 3.37 5.06 6.74 7.59 10.1 5.45 7.25 10.9 14.5 16.2 21.8 9.49 12.9 9.49 12.9 19.2 25.6 0.594 0.766 1.19 1.53 1.8 2.32 1.18 1.51 2.36 3.02 3.55 4.53 0.537 0.692 1.07 1.38 1.63 2.1 0.723 0.922 0.723 0.922 1.46 1.86 1.16 1.82 1.16 1.82 1.64 3.99 0.259 0.907 0.259 0.907 0.523 1.83 0.99 0.33 1.98 0.66 3 1 1.4 1.72 1.4 1.72 2.94 4.06 3.24 4.8 6.64 9.44 10.1 14.1 0.494 0.656 0.989 1.31 1.5 1.99 0.985 1.31 1.97 2.61 2.96 3.92 2 2.66 4 5.32 5.99 7.98 1.47 1.96 2.95 3.92 4.42 5.89 8.83 11.7 8.83 11.7 13.1 17.6 6.86 9.48 13.9 18.8 21.1 28.1 4.03 5.22 7.94 10.5 11.8 15.8 3.1 4.25 6.27 8.44 9.49 12.6 9.62 12.5 9.62 12.5 9.62 15 0.99 0.33 1.98 0.66 3 1 1.29 1.64 1.29 1.64 2.62 3.81 3.82 5.96 8.1 11.5 12.4 17.2 4.37 5.8 8.74 11.6 13 17.5 7.41 10.3 7.41 10.3 15.3 20.2 1.73 2.27 1.73 2.27 1.73 4.27 0.99 0.33 1.98 0.66 3 1 1.32 1.68 1.32 1.68 2.69 3.88 5.41 8.43 11.5 16.4 17.6 24.3 3.38 4.37 6.63 8.82 9.86 13.3 1.75 2.39 3.54 4.72 5.36 7.05 3.16 4.03 6.17 8.16 9.17 12.3 1.81 2.48 3.65 4.93 5.51 7.38 0.549 0.723 1.1 1.45 1.66 2.19 1.1 1.44 2.2 2.88 3.3 4.31 0.501 0.659 1 1.32 1.52 2 0.452 0.59 0.904 1.18 1.37 1.79 0.975 1.52 0.975 1.52 0.975 3.52 0.99 0.33 1.98 0.66 3 1 1.17 1.82 2.33 3.66 3.44 5.52 2.79 4.45 6.05 8.56 9.23 12.7 1.92 2.54 3.83 5.09 5.73 7.64 4.24 5.67 8.51 11.3 12.8 16.9 3.68 4.75 7.24 9.57 10.8 14.4 3.6 4.96 7.31 9.85 11 14.7 1.44 1.92 2.88 3.83 4.31 5.75 0.74 0.986 1.48 1.97 2.24 2.99 1.78 2.37 3.55 4.74 5.33 7.12 4.81 6.43 9.64 12.9 14.6 19.2 9.56 12.4 9.56 12.4 9.56 14.9 0.99 0.33 1.98 0.66 3 1 1.51 2.12 1.51 2.12 3.12 4.88 3.17 5.17 6.73 9.74 10.6 14.4 2.91 3.54 5.57 7.24 8.25 11 2.01 2.79 4.06 5.54 6.13 8.29 3.98 5.28 7.9 10.6 11.8 15.9 4.73 6.44 9.54 12.8 14.4 19.1 3.9 5.07 7.66 10.3 11.4 15.4 3.48 4.74 7.01 9.44 10.6 14.1 3.38 4.36 6.59 8.81 9.73 13.4 2.16 3.05 4.43 6.01 6.71 8.96 0.419 0.542 0.839 1.08 1.27 1.64 0.853 1.1 1.71 2.2 2.56 3.31 2.15 2.78 4.29 5.57 6.42 8.36 0.745 0.973 1.49 1.95 2.26 2.95 1.62 2.36 1.62 2.36 1.62 4.36 0.99 0.33 1.98 0.66 3 1 1.14 1.8 2.27 3.6 3.36 5.43 1.98 3.1 4.19 5.98 6.45 8.88 3.2 4.1 6.33 8.22 9.38 12.4 2.38 3.3 4.8 6.55 7.31 9.75 2.51 3.2 4.93 6.45 7.31 9.75 2.95 4.08 5.97 8.09 9.06 12.1 3.42 4.41 6.72 8.88 9.94 13.4 4.27 6.04 8.71 11.9 13.2 17.8 4.26 5.54 8.46 11.1 12.6 16.7 2.77 3.71 5.57 7.38 8.41 11 11.9 15.3 11.9 15.3 11.9 18.7-19 0.154-38.1 0.302-57.1 0.443-8.84 0.0654-17.7 0.133-26.5 0.205-7.71 0.0631-15.4 0.122-23.1 0.177-4.08 0.029-8.16 0.0599-12.2 0.0955-3.85 0.0336-7.7 0.0618-11.6 0.0862-1.4 0.00977-2.8 0.0214-4.2 0.0351-4.41 0.0426-8.83 0.0253-13.2-0.0418-0.671-0.00635-1.34-0.0127-2.03-0.0192-2.04-0.0291-4.07-0.0943-6.11-0.17-1.2-0.0346-2.39-0.0692-3.62-0.105-4.09-0.894-5.56-2.55-8.23-5.71-0.669-0.79-1.34-1.58-2.03-2.39-3.56-4.5-7.07-9.02-10.5-13.6-1.55-2.06-3.13-4.08-4.73-6.1-2.97-3.8-5.78-7.69-8.56-11.6-4.12-5.82-8.39-11.5-12.8-17.1-3.44-4.45-6.81-8.96-10.2-13.5-2.41-3.23-4.83-6.45-7.25-9.67-1.02-1.36-2.05-2.73-3.07-4.09-0.494-0.659-0.988-1.32-1.5-2-6.31-8.41-6.31-8.41-8.47-11.3-1.23-1.64-2.47-3.28-3.71-4.92-2.11-2.79-4.17-5.56-6.07-8.51-2.02-2.94-4.16-5.63-6.44-8.38-5.39-6.53-10.3-13.4-15.2-20.3-3.7-5.22-7.38-10.4-11.4-15.4-3.52-4.31-6.7-8.81-9.88-13.4-4.35-6.25-8.92-12.2-13.7-18.1-4.34-5.36-8.28-11-12.2-16.6-3.48-4.98-7.18-9.68-11.1-14.3-2.98-3.68-5.69-7.54-8.41-11.4-3.16-4.47-6.46-8.82-9.83-13.1-3.65-4.71-7.12-9.53-10.6-14.4-3.96-5.52-7.98-10.9-12.3-16.2-6.94-8.68-13.5-17.7-20-26.7-4.17-5.71-8.44-11.3-12.7-17-2.77-3.68-5.53-7.36-8.29-11-1.47-1.96-2.95-3.92-4.42-5.88-3.59-4.78-7.16-9.57-10.7-14.4-2.95-4.08-5.98-8.08-9.06-12.1-3.76-4.86-7.41-9.78-11-14.8-5.22-7.2-10.6-14.3-16.1-21.3-11.3-14.6-11.3-14.6-14.5-20.1-1.35-2.19-2.64-3.6-4.46-5.38-1.42-1.81-2.81-3.65-4.19-5.5-0.398-0.534-0.796-1.07-1.21-1.62-2.48-3.34-4.92-6.7-7.36-10.1-4.05-5.6-8.26-11.1-12.5-16.5-3.7-4.82-7.3-9.69-10.8-14.6-2.56-3.49-5.22-6.9-7.87-10.3-3.68-4.76-7.19-9.63-10.7-14.5-3.92-5.47-7.91-10.8-12.2-16-3.72-4.71-7.23-9.57-10.8-14.4-3.88-5.3-7.79-10.6-11.7-15.8-0.496-0.66-0.992-1.32-1.5-2-2.14-2.85-4.29-5.7-6.44-8.55-5.22-6.94-10.4-13.9-15.5-20.9-3.44-4.67-6.92-9.3-10.5-13.9-3.85-4.97-7.52-10-11.1-15.2-2.43-3.43-4.95-6.76-7.61-10-3.12-3.83-6.03-7.78-8.88-11.8-3.64-5.15-7.38-10.2-11.2-15.2-8.52-11-16.8-22.2-25-33.4-4.87-6.63-9.75-13.2-14.9-19.6-1.93-2.53-3.84-5.08-5.75-7.62-0.531-0.709-1.06-1.42-1.61-2.15-3.61-4.83-7.18-9.7-10.7-14.6-2.84-3.9-5.74-7.75-8.64-11.6-2.25-2.98-4.48-5.98-6.72-8.97-3.17-4.24-6.39-8.44-9.62-12.6-3.74-4.85-7.38-9.76-11-14.7-2.01-2.76-4.05-5.49-6.1-8.21-4.72-6.27-9.37-12.6-14-18.9-2.37-3.23-4.74-6.43-7.29-9.53-1.58-2.06-1.58-2.06-1.58-4.06h-2c-1.48-1.95-2.84-3.9-4.19-5.94-0.818-1.21-1.64-2.42-2.46-3.63-0.403-0.593-0.806-1.19-1.22-1.8-1.93-2.79-4.03-5.43-6.14-8.08-2.61-3.33-5.14-6.72-7.68-10.1-0.512-0.684-1.02-1.37-1.55-2.07-1.06-1.41-2.11-2.82-3.17-4.23-2.59-3.46-5.19-6.92-7.78-10.4-1.01-1.34-2.01-2.68-3.02-4.03-1.68-2.24-3.37-4.49-5.05-6.73-4.56-6.05-9.06-12.1-13.6-18.2-5.9-8.02-11.8-16-17.8-24-2.08-2.76-4.15-5.53-6.23-8.3-0.719-0.959-1.44-1.92-2.18-2.91-4.09-5.45-8.17-10.9-12.3-16.3-1.15-1.53-1.15-1.53-2.32-3.1-1.57-2.09-3.13-4.18-4.7-6.27-3.33-4.45-6.66-8.89-10.1-13.3-3.04-3.89-5.94-7.86-8.81-11.9-0.425-0.591-0.849-1.18-1.29-1.79-6.46-9.07-6.46-9.07-6.46-13 2.77-1.39 5.02-1.13 8.12-1.13z"/>
</svg>
